<svg xmlns="http://www.w3.org/2000/svg" viewBox="0 0 400 300" width="406" height="306" class="illustration styles_illustrationTablet__1DWOa"><g id="_106_dog_walking_outline" data-name="#106_dog_walking_outline"><path d="M267.67,176.86s2.37-9.22,4.07-9.49,1.47,9.49,1.47,9.49Z" fill="#f56132"></path><path d="M273.21,177.86h-5.54a1,1,0,0,1-1-1.25c1.68-6.53,3.33-10,4.88-10.23a1.42,1.42,0,0,1,1.19.35c1.43,1.24,1.51,6.9,1.44,10.15A1,1,0,0,1,273.21,177.86Zm-4.24-2h3.25a32,32,0,0,0-.56-7.14A33.25,33.25,0,0,0,269,175.86Z" fill="#093f68"></path><path d="M220.71,197.15s-6.37,0-7.62-4.84,3.22-3.59,6.45-6.36,3.68-5,.81-6.1-15.87,1.79-15.24,9.32,5.74,14.07,14.34,12.19Z" fill="#ffbc0e"></path><path d="M216.57,202.68a11.23,11.23,0,0,1-6.81-2.18c-3.19-2.36-5.25-6.46-5.65-11.25-.22-2.64,1-5,3.53-7,4.18-3.15,10.8-4.22,13.06-3.38a3.45,3.45,0,0,1,2.51,2.54c.27,1.53-.74,3.29-3,5.25a12.13,12.13,0,0,1-3.89,2.07c-2.12.77-2.83,1-2.25,3.29,1,4,6.6,4.09,6.66,4.09a1,1,0,0,1,.95,1.29l-1.25,4.2a1,1,0,0,1-.75.69A14,14,0,0,1,216.57,202.68Zm2.1-22.06a18.5,18.5,0,0,0-9.82,3.27c-2,1.5-2.91,3.25-2.74,5.2.35,4.21,2.11,7.79,4.84,9.8a9.64,9.64,0,0,0,7.72,1.6l.73-2.44c-2.14-.29-6.21-1.38-7.28-5.49s1.47-4.93,3.49-5.67a10.19,10.19,0,0,0,3.28-1.7c2.38-2.05,2.4-3.11,2.35-3.39-.08-.48-.72-.82-1.24-1A3.86,3.86,0,0,0,218.67,180.62Z" fill="#093f68"></path><path d="M264.27,214s12,20.21,10.22,22-4.21,2.42-6,.45-11.92-15-11.65-15.28Z" fill="#093f68"></path><path d="M271.05,238.66h-.11a4.43,4.43,0,0,1-3.2-1.54c-1-1.1-4.17-5.12-6.65-8.34-5.78-7.51-5.71-7.57-5-8.32l7.46-7.18a1,1,0,0,1,1.55.21s3.05,5.13,5.81,10.37c5.44,10.34,5.09,12,4.26,12.85A6,6,0,0,1,271.05,238.66Zm-13-17.3c1.71,2.56,9.56,12.66,11.15,14.41a2.41,2.41,0,0,0,1.77.89,3.88,3.88,0,0,0,2.69-1.27c.19-1.81-4.69-11.38-9.63-19.79Z" fill="#093f68"></path><path d="M230.05,210.72c0,.26,7.71,21.9,7,25.76-.45,2.43-5.24,2.65-7.37-1.7-2.71-5.52-7.42-17.88-7.42-17.88Z" fill="#093f68"></path><path d="M234.49,239.2a6.56,6.56,0,0,1-5.72-4c-2.7-5.5-7.26-17.46-7.45-18a1,1,0,0,1,.31-1.14l7.8-6.19a1,1,0,0,1,1.06-.11,1,1,0,0,1,.54.69c.06.19.27.83.59,1.78,3.28,9.75,7,21.33,6.4,24.37a3.2,3.2,0,0,1-2.9,2.5A4.35,4.35,0,0,1,234.49,239.2Zm-11-22c1,2.66,4.82,12.44,7.12,17.11,1.08,2.22,2.94,3,4.28,2.84.25,0,1.08-.2,1.21-.89.36-1.94-1.77-9.8-6.34-23.37l-.17-.53Zm7.6-6.51h0Z" fill="#093f68"></path><path d="M149.53,62.78A19.21,19.21,0,0,1,156,61.06a19.9,19.9,0,0,1,16.25,6.5c4.74,5.31,6.74,13.83,7.31,20.75a263.28,263.28,0,0,1,.67,27.81,11.44,11.44,0,0,1-.68,2.7s-11.85,10.08-36.26,5.79c-7.65-1.34-15.4-2.08-23.08-3.39,1.28-6.39,1.14-13,2.34-19.32,1-5.32,2.15-10.61,2.93-16s1.56-12.63,6.89-15.5a9.77,9.77,0,0,1,8.66-.23A19.85,19.85,0,0,1,149.53,62.78Z" fill="#725858"></path><path d="M155.09,126.69a69.2,69.2,0,0,1-12-1.09c-3.92-.69-8-1.23-11.85-1.75-3.68-.5-7.49-1-11.22-1.65a1,1,0,0,1-.66-.42,1,1,0,0,1-.16-.76,88.72,88.72,0,0,0,1.22-9.84,92.92,92.92,0,0,1,1.13-9.47c.27-1.41.54-2.81.82-4.22.75-3.83,1.53-7.8,2.1-11.77l.12-.78c.74-5.27,1.77-12.49,7.29-15.46a10.78,10.78,0,0,1,8.75-.59,21,21,0,0,1,8.45-7h0a20.13,20.13,0,0,1,6.82-1.81A21.05,21.05,0,0,1,173,66.89c5.56,6.23,7.12,16,7.56,21.34a261.11,261.11,0,0,1,.67,27.91,12.34,12.34,0,0,1-.74,3,1,1,0,0,1-.29.42C179.8,119.94,171.63,126.69,155.09,126.69Zm-33.7-6.29c3.38.56,6.82,1,10.15,1.46,3.92.53,8,1.07,11.93,1.77,22,3.87,33.63-4.18,35.25-5.41a9.5,9.5,0,0,0,.52-2.13,259.62,259.62,0,0,0-.66-27.69c-.34-4.07-1.7-14.16-7.06-20.18a18.94,18.94,0,0,0-15.43-6.16,18.44,18.44,0,0,0-6.15,1.62h0a19,19,0,0,0-8.06,7,1,1,0,0,1-1.27.37,8.76,8.76,0,0,0-7.75.21c-4.64,2.49-5.54,8.86-6.26,14l-.12.79c-.58,4-1.36,8-2.12,11.87-.27,1.4-.55,2.8-.82,4.2a93,93,0,0,0-1.1,9.27C122.19,114.32,121.93,117.39,121.39,120.4Zm28.14-57.62h0Z" fill="#093f68"></path><path d="M192.26,154.93s10.79,4.92,11.67,6.68c2.68,5.35,1.35,7.07,0,7.15-3.84.2-6.51-1.81-7.73-2.32s1.26-.45-.31-.95-7.55-3.05-7.55-3.05Z" fill="#ffc9b0"></path><path d="M203.37,169.77a13.81,13.81,0,0,1-6.74-2c-.33-.18-.6-.33-.82-.42-.64-.27-1-.67-1-1.18-2.17-.81-6.67-2.73-6.89-2.82a1,1,0,0,1-.55-.59,1,1,0,0,1,.06-.8l3.92-7.51a1,1,0,0,1,1.3-.44c3.34,1.52,11.2,5.27,12.14,7.14,1.68,3.35,2.09,5.82,1.21,7.33a2.46,2.46,0,0,1-2.05,1.26C203.77,169.77,203.57,169.77,203.37,169.77Zm-6-3.84.16.09a11.61,11.61,0,0,0,6.29,1.74.49.49,0,0,0,.43-.27c.38-.65.25-2.42-1.27-5.44-.52-.88-5.6-3.62-10.32-5.82l-3,5.71c1.76.74,5.33,2.24,6.46,2.6.39.12,1.2.38,1.23,1.2A1.2,1.2,0,0,1,197.42,165.93Zm-1.6.6h0Z" fill="#093f68"></path><path d="M148.15,175.21a19.28,19.28,0,0,0,16.77-5.57l-3.74-13.33L143.61,159S137.59,173.64,148.15,175.21Z" fill="#093f68"></path><path d="M139.6,226.06l-8-10c16-11.73,25.76-20.76,27.1-24.88,1.08-3.29-9.23-17.1-13.21-31l20.9-1.74c2,7,6,31,3,40.24C166.56,207.41,146.45,220.74,139.6,226.06Z" fill="#093f68"></path><path d="M139.6,227.06a1,1,0,0,1-.78-.38l-8-10a1,1,0,0,1-.21-.75,1,1,0,0,1,.4-.68c15.45-11.3,25.45-20.42,26.74-24.38.39-1.17-2-5.68-4.27-10-3.05-5.81-6.85-13-8.95-20.37a1,1,0,0,1,.14-.84,1,1,0,0,1,.74-.43l20.89-1.75a1,1,0,0,1,1.05.72c1.78,6.2,6.19,31.05,3,40.83-2.46,7.53-16.34,17.71-25.52,24.44-1.85,1.35-3.45,2.52-4.64,3.45A1,1,0,0,1,139.6,227.06Zm-6.55-10.84,6.72,8.45c1.09-.83,2.41-1.8,3.9-2.89,8.43-6.18,22.54-16.52,24.8-23.44,2.81-8.62-.82-31.26-2.81-38.87l-18.84,1.58c2.11,6.75,5.6,13.41,8.45,18.82,3.41,6.49,5,9.7,4.4,11.59C157.76,197.32,142.55,209.23,133.05,216.22Z" fill="#093f68"></path><path d="M158.71,191.17c-1.37,4.14-11.08,13.15-27.09,24.86l8,10c6.85-5.32,27-18.65,29.82-27.41a21.92,21.92,0,0,0,.83-4.29C166.37,193.41,162.51,192.37,158.71,191.17Z" fill="#ffc9b0"></path><path d="M139.6,227.05a1,1,0,0,1-.78-.37l-8-10a1,1,0,0,1-.21-.75,1,1,0,0,1,.4-.68c15.42-11.28,25.42-20.39,26.73-24.36a1,1,0,0,1,1.25-.64c3.51,1.1,7.26,2.14,11.47,3.17a1,1,0,0,1,.76,1.08,22.05,22.05,0,0,1-.87,4.49c-2.46,7.54-16.34,17.71-25.53,24.44-1.84,1.35-3.44,2.52-4.63,3.44A.94.94,0,0,1,139.6,227.05Zm-6.55-10.83,6.72,8.44c1.09-.82,2.41-1.79,3.89-2.87,8.43-6.18,22.55-16.53,24.81-23.45a18.67,18.67,0,0,0,.68-3.22c-3.57-.89-6.82-1.78-9.87-2.72C156.23,198.52,142.06,209.59,133.05,216.22Z" fill="#093f68"></path><polygon points="160.49 230.9 136.83 163 147.69 155.86 173.08 228.14 160.49 230.9" fill="#093f68"></polygon><path d="M160.49,231.9a1,1,0,0,1-.94-.67l-23.67-67.9a1,1,0,0,1,.4-1.16L147.14,155a1,1,0,0,1,.87-.11,1,1,0,0,1,.62.62L174,227.81a1,1,0,0,1-.07.82,1,1,0,0,1-.66.49l-12.59,2.76ZM138,163.41l23.11,66.32,10.62-2.32-24.59-70Z" fill="#093f68"></path><path d="M147.65,194.05l12.84,36.85,12.59-2.76-13.21-37.61C155.84,191.84,151.77,193,147.65,194.05Z" fill="#ffc9b0"></path><path d="M160.49,231.9a1,1,0,0,1-.94-.67L146.7,194.38a1,1,0,0,1,.07-.8,1,1,0,0,1,.63-.5c4.2-1.06,8.29-2.24,12.16-3.5a1,1,0,0,1,1.25.62L174,227.81a1,1,0,0,1-.07.82,1,1,0,0,1-.66.49l-12.59,2.76ZM149,194.75l12.19,35,10.62-2.32-12.51-35.63C155.94,192.84,152.48,193.83,149,194.75Z" fill="#093f68"></path><path d="M167.71,128.9c-2.77-4.94-3.92-7.06-8.55-7.06H146.49a9.65,9.65,0,0,0-9.66,9.65V163H168V152.5c6.76,7.13,14.63,13.48,24.36,14.87l1.82-12.76C181.64,152.82,172.3,137.24,167.71,128.9Z" fill="#68e1fd"></path><path d="M192.36,168.37h-.14C182.41,167,174.76,160.77,169,155v8a1,1,0,0,1-1,1H136.83a1,1,0,0,1-1-1V131.5a10.67,10.67,0,0,1,10.66-10.66h12.67c5.18,0,6.57,2.48,9.35,7.44l.07.13h0c3.18,5.78,12.86,23.36,25.73,25.2a1,1,0,0,1,.66.39,1,1,0,0,1,.19.74l-1.82,12.76A1,1,0,0,1,192.36,168.37ZM168,151.5a1,1,0,0,1,.72.31c5.53,5.82,13.06,12.65,22.79,14.41l1.54-10.79c-13.35-2.67-23-20.18-26.21-26l-.08-.14c-2.69-4.8-3.59-6.41-7.6-6.41H146.49a8.66,8.66,0,0,0-8.66,8.66V162H167v-9.5a1,1,0,0,1,.63-.93A1.16,1.16,0,0,1,168,151.5Z" fill="#093f68"></path><polygon points="150.28 123.31 149.27 162.94 157.58 162.94 157.58 124.2 150.28 123.31" fill="#70cc40"></polygon><path d="M157.58,163.94h-8.31a1,1,0,0,1-.71-.31,1,1,0,0,1-.29-.72l1-39.63a1,1,0,0,1,.34-.73,1,1,0,0,1,.78-.24l7.3.9a1,1,0,0,1,.88,1v38.74A1,1,0,0,1,157.58,163.94Zm-7.28-2h6.28V125.08l-5.33-.65Z" fill="#093f68"></path><path d="M150.64,120.2h6.94a0,0,0,0,1,0,0v4a2.95,2.95,0,0,1-2.95,2.95h-1a2.95,2.95,0,0,1-2.95-2.95v-4a0,0,0,0,1,0,0Z" fill="#ffc9b0"></path><path d="M154.63,128.14h-1a4,4,0,0,1-3.94-3.94v-4a1,1,0,0,1,1-1h6.94a1,1,0,0,1,1,1v4A4,4,0,0,1,154.63,128.14Zm-3-6.94v3a1.94,1.94,0,0,0,1.94,1.94h1a1.94,1.94,0,0,0,2-1.94v-3Z" fill="#093f68"></path><ellipse cx="172.09" cy="102.89" rx="5.2" ry="5.81" fill="#ffc9b0"></ellipse><path d="M172.09,109.7c-3.42,0-6.21-3-6.21-6.81s2.79-6.81,6.21-6.81,6.2,3,6.2,6.81S175.51,109.7,172.09,109.7Zm0-11.62c-2.32,0-4.21,2.16-4.21,4.81s1.89,4.81,4.21,4.81,4.2-2.16,4.2-4.81S174.4,98.08,172.09,98.08Z" fill="#093f68"></path><path d="M153.89,121.84c-11.41,0-21.63-14.09-21.63-25.33l2.71,1-.09-8s14.3-3.77,12.42-10.43c0,0,4.2,5,10.23,5,11.08,0,15.42-3,15.42-3v20.32C173,112.73,165.31,121.84,153.89,121.84Z" fill="#ffc9b0"></path><path d="M153.89,122.84c-12,0-22.63-14.73-22.63-26.33a1,1,0,0,1,1.35-.93l1.35.51-.08-6.49a1,1,0,0,1,.74-1c.09,0,9-2.42,11.35-6.49a3.35,3.35,0,0,0,.37-2.69,1,1,0,0,1,.49-1.16,1,1,0,0,1,1.23.24s4,4.61,9.44,4.61h0c10.56,0,14.83-2.76,14.87-2.79a1,1,0,0,1,1,0,1,1,0,0,1,.53.88v20.32C174,113.86,165.51,122.84,153.89,122.84ZM133.31,98c.83,12.26,11.84,22.86,20.58,22.86,10.46,0,18.06-8.14,18.06-19.35V82.79c-2.18.93-6.73,2.33-14.42,2.34h0a14.63,14.63,0,0,1-9.16-3.59,5.9,5.9,0,0,1-.64,1.58c-2.31,4.07-9.45,6.51-11.81,7.22l.08,7.19a1,1,0,0,1-.42.83,1,1,0,0,1-.93.12Z" fill="#093f68"></path><ellipse cx="148.75" cy="98.94" rx="1.88" ry="1.88" fill="#093f68"></ellipse><circle cx="166.88" cy="98.94" r="1.88" fill="#093f68"></circle><path d="M158.76,104.54a12.08,12.08,0,0,1-1.89-.16,1,1,0,0,1,.34-2,9.75,9.75,0,0,0,2.3.09A15.42,15.42,0,0,0,158,98.58a1,1,0,0,1,1.78-.93c.85,1.64,2.2,4.59,1.6,5.9a1.38,1.38,0,0,1-1,.81A6.93,6.93,0,0,1,158.76,104.54Z" fill="#093f68"></path><path d="M141.77,96a2,2,0,0,1-.38-4l8.82-1.7A2,2,0,1,1,151,94.2l-8.81,1.71A1.72,1.72,0,0,1,141.77,96Z" fill="#093f68"></path><path d="M168.81,94.27h-.09l-9-.4a2,2,0,0,1-1.91-2.09,2,2,0,0,1,2.09-1.9l9,.39a2,2,0,0,1-.09,4Z" fill="#093f68"></path><path d="M136.35,98s-5-3.44-7.65,1-.09,12,8.13,9.77" fill="#ffc9b0"></path><path d="M134.08,110.1a7.07,7.07,0,0,1-5.89-2.74,8.15,8.15,0,0,1-.34-8.94,5.28,5.28,0,0,1,3.47-2.63c2.78-.59,5.48,1.25,5.6,1.33a1,1,0,0,1-1.14,1.65,6.17,6.17,0,0,0-4.05-1,3.37,3.37,0,0,0-2.17,1.7,6.21,6.21,0,0,0,.23,6.71c1.37,1.83,3.78,2.39,6.78,1.59a1,1,0,1,1,.51,1.93A11.59,11.59,0,0,1,134.08,110.1Z" fill="#093f68"></path><path d="M156.5,113.29a8.92,8.92,0,0,1-2.08-.24c-2.66-.62-4.87-2.45-6.54-5.43a1,1,0,1,1,1.74-1c1.39,2.47,3.16,4,5.26,4.47,3.57.83,7-1.47,7-1.49a1,1,0,1,1,1.13,1.65A12.7,12.7,0,0,1,156.5,113.29Z" fill="#093f68"></path><path d="M160.49,230.9l2.67,8L184.09,232a.71.71,0,0,0-.05-1.36l-12.19-3.09Z" fill="#68e1fd"></path><path d="M163.16,239.92a1,1,0,0,1-.95-.69l-2.67-8a1.06,1.06,0,0,1,.06-.78,1,1,0,0,1,.61-.49l11.36-3.31a1,1,0,0,1,.52,0l12.2,3.09a1.71,1.71,0,0,1,.11,3.28l-20.93,6.88A1.12,1.12,0,0,1,163.16,239.92Zm-1.39-8.35,2,6.09,19-6.26-11-2.77Z" fill="#093f68"></path><path d="M131.62,216l-6.36,5.78,15.38,16a.51.51,0,0,0,.88-.4l-1.3-13.11Z" fill="#68e1fd"></path><path d="M141,239a1.55,1.55,0,0,1-1.09-.47l-15.37-16a1,1,0,0,1-.28-.73,1,1,0,0,1,.33-.71l6.36-5.77a1,1,0,0,1,1.36,0l8.61,8.31a1,1,0,0,1,.3.62l1.29,13.1A1.54,1.54,0,0,1,141,239Zm-14.31-17.16,13.7,14.29-1.13-11.34-7.66-7.4Z" fill="#093f68"></path><path d="M110.38,170.57c-.5,2-.62,4.25-1.31,6.2-.84,2.4-1.47,4.7-.84,7.29a6.14,6.14,0,0,0,2.09,3.37c.91.72,2.92,1.67,3.88.66a3.61,3.61,0,0,0,.69-1.35,21.15,21.15,0,0,0,1-5.84l1.19,2.72c.17.39.4.82.81.88s.86-.39,1-.84a6.49,6.49,0,0,0,.13-3.63c-.26-1.34-.75-2.7-.94-4a23.53,23.53,0,0,1,.66-4.7Z" fill="#ffc9b0"></path><path d="M113.05,189.53a5.92,5.92,0,0,1-3.35-1.31,7.21,7.21,0,0,1-2.44-3.92c-.72-2.93,0-5.49.87-7.86a21.38,21.38,0,0,0,.78-3.5c.14-.86.28-1.75.5-2.61a1,1,0,0,1,1-.75l8.44.72h0a1,1,0,0,1,.78,1.5,33.45,33.45,0,0,0-.53,4.1,21.38,21.38,0,0,0,.49,2.1c.16.62.32,1.23.44,1.84a7.43,7.43,0,0,1-.19,4.19,2,2,0,0,1-2.11,1.46,1.86,1.86,0,0,1-1.28-.91,20.9,20.9,0,0,1-.66,2.47,4.26,4.26,0,0,1-.92,1.72A2.47,2.47,0,0,1,113.05,189.53Zm-1.89-17.88c-.1.52-.19,1-.28,1.61a23.14,23.14,0,0,1-.86,3.84c-.77,2.18-1.4,4.33-.82,6.73a5.19,5.19,0,0,0,1.74,2.82c.82.65,2.17,1.13,2.53.75a2.56,2.56,0,0,0,.47-1,19.39,19.39,0,0,0,1-5.55,1,1,0,0,1,1.91-.37l1.2,2.72v0a5.38,5.38,0,0,0,.06-3c-.11-.57-.26-1.14-.41-1.7a21.19,21.19,0,0,1-.53-2.39,30,30,0,0,1,.4-3.94Zm7.61.64h0Zm.07,0Zm-.07,0Zm0,0Zm0,0Z" fill="#093f68"></path><path d="M147.6,134.8c-6.26,3-21.19,12.57-27.14,36.82l-12.68-2s.08-.74.17-1.11c6.89-28.08,24.22-40.3,33.15-44.88" fill="#68e1fd"></path><path d="M120.47,172.62h-.16l-12.68-2a1,1,0,0,1-.85-1.09c0-.09.1-.82.2-1.24,6.9-28.14,24-40.6,33.66-45.53a1,1,0,1,1,.91,1.78c-9.3,4.77-25.91,16.86-32.63,44.23v0l10.81,1.67c6.2-24,21.22-33.58,27.44-36.59a1,1,0,0,1,1.34.47,1,1,0,0,1-.47,1.33c-6,2.92-20.74,12.29-26.59,36.16A1,1,0,0,1,120.47,172.62Z" fill="#093f68"></path><path d="M159.87,191a.5.5,0,0,1-.48-.34L151.47,166a.5.5,0,0,1,.95-.31l7.92,24.66a.5.5,0,0,1-.32.63Z" fill="#fff"></path><path d="M168,153.5a1,1,0,0,1-1-1V139.26a1,1,0,0,1,2,0V152.5A1,1,0,0,1,168,153.5Z" fill="#093f68"></path><path d="M253.42,193.83l10.31-18.28s.09-6.46,1.44-8.16,2.24-.18,2.51.45,1.88,6.63,1.88,6.63,18.82,5.74,19.18,7-3.41,7.8-5,8.34-10.67.81-10.67.81-4.48,17.83-5.73,23.12-4.86,4.8-4.86,4.8-.52,19.62-2.76,19.8-5,.09-5.65-2.06S252.53,221,252.53,221s-16.59-.89-22.14-5.73a64.58,64.58,0,0,0-7.08,5.16s-3.69,13.37-5,15.13c-2.16,2.84-6.64,2.11-6.57-2.34,0-1.87,2-16.19,4-29.52.85-5.67,4-8.78,6.18-9.32S253.42,193.83,253.42,193.83Z" fill="#ffbc0e"></path><path d="M258.31,239.4c-1.86,0-4.5-.4-5.22-2.85-.56-1.94-1.28-11.48-1.5-14.62-3.45-.25-15.84-1.42-21.27-5.44a63,63,0,0,0-6.13,4.49c-.78,2.82-3.78,13.42-5.11,15.18a4.89,4.89,0,0,1-5.43,1.84c-1.88-.65-3-2.45-2.94-4.81,0-1.93,1.93-16.06,4-29.65.87-5.73,4.14-9.44,6.93-10.14,2.1-.52,26.3-.56,31.21-.57l9.9-17.55c0-1.57.25-6.75,1.64-8.51a2.44,2.44,0,0,1,2.22-1.15,2.9,2.9,0,0,1,2,1.82c.24.58,1.29,4.42,1.78,6.24,18.82,5.75,19.16,6.94,19.32,7.51.53,1.83-3.66,8.89-5.66,9.56-1.48.49-7.72.75-10.2.83-.86,3.41-4.45,17.77-5.55,22.38-.93,3.91-3.19,5.26-4.85,5.53-.59,19.59-2.82,19.77-3.66,19.84C259.43,239.35,258.91,239.4,258.31,239.4Zm-27.92-25.14a1,1,0,0,1,.65.24c5.24,4.56,21.38,5.49,21.54,5.49a1,1,0,0,1,.94.93c.25,3.62,1,13.39,1.49,15.07.21.7.89,1.6,4.39,1.36,1-1.47,1.85-10.79,2.06-18.85a1,1,0,0,1,.36-.73,1,1,0,0,1,.78-.23c.27,0,2.75.17,3.74-4,1.25-5.23,5.7-23,5.74-23.14a1,1,0,0,1,.94-.75c3.45-.11,9.31-.4,10.39-.76s4-5.36,4.33-7c-1.65-1-10.45-4-18.47-6.46a1,1,0,0,1-.68-.7c-.77-2.89-1.67-6.11-1.83-6.5a1.5,1.5,0,0,0-.44-.63s-.13.11-.37.41c-.78,1-1.18,5-1.22,7.55a.91.91,0,0,1-.13.48l-10.31,18.28a1,1,0,0,1-.87.51c-11.32,0-29.83.14-31.31.51-1.66.42-4.62,3.1-5.44,8.5-2,13-3.93,27.58-4,29.38,0,1.48.56,2.53,1.59,2.89a2.92,2.92,0,0,0,3.19-1.16c.89-1.18,3.45-9.7,4.86-14.8a1,1,0,0,1,.31-.49,64.71,64.71,0,0,1,7.2-5.25A1,1,0,0,1,230.39,214.26ZM287.94,182Z" fill="#093f68"></path><polygon points="271.74 203.38 255.62 187.62 251.66 193.03 268.69 211.22 271.74 203.38" fill="#f56132"></polygon><path d="M268.69,212.22a1,1,0,0,1-.73-.31l-17-18.2a1,1,0,0,1-.07-1.27l3.95-5.41a1,1,0,0,1,.73-.41,1,1,0,0,1,.78.29l16.12,15.75a1,1,0,0,1,.23,1.08l-3,7.84a1,1,0,0,1-.75.62A.58.58,0,0,1,268.69,212.22ZM253,193l15.38,16.43,2.23-5.75-14.82-14.49Z" fill="#093f68"></path><circle cx="273.21" cy="181.1" r="1.46" fill="#093f68"></circle><path d="M253.4,191.66a1,1,0,0,1-.52-.15c-.34-.2-34.33-20.82-45.12-25.38-.79-.34-1.47-.64-2.08-.92-3.6-1.62-3.89-1.75-6.81,1.18-3.07,3.09-5.07,13.47-5.58,17.21a1,1,0,0,1-1.12.86,1,1,0,0,1-.86-1.13c.08-.58,2-14.16,6.14-18.35,3.75-3.75,5-3.43,9.06-1.59.59.27,1.26.57,2,.89,10.92,4.63,44,24.67,45.38,25.52a1,1,0,0,1-.52,1.86Z" fill="#093f68"></path><path d="M195.59,162.14s.69,8.61,3.66,7.44.56-7.89.56-7.89" fill="#ffc9b0"></path><path d="M198.7,170.69a2.24,2.24,0,0,1-1.21-.36c-2.25-1.4-2.81-7-2.9-8.11a1,1,0,0,1,2-.16c.18,2.27.93,5.93,2,6.57a.32.32,0,0,0,.33,0c1.54-.62.64-4.81,0-6.62a1,1,0,0,1,.61-1.28,1,1,0,0,1,1.27.6c.28.78,2.63,7.66-1.13,9.15A2.37,2.37,0,0,1,198.7,170.69Z" fill="#093f68"></path><path d="M297.61,240H102.39a1,1,0,1,1,0-2H297.61a1,1,0,0,1,0,2Z" fill="#093f68"></path><circle cx="289.42" cy="181.38" r="2.46" fill="#093f68"></circle><path d="M289.42,184.84a3.47,3.47,0,1,1,3.46-3.46A3.46,3.46,0,0,1,289.42,184.84Zm0-4.93a1.47,1.47,0,1,0,1.46,1.47A1.46,1.46,0,0,0,289.42,179.91Z" fill="#093f68"></path></g></svg>